<svg xmlns="http://www.w3.org/2000/svg" viewBox="10018.215 609.274 43.897 51.375">
  <defs>
    <style>
      .cls-1 {
        fill: #fff;
      }
    </style>
  </defs>
  <g id="_001-premium-badge" data-name="001-premium-badge" transform="translate(10018.215 609.274)">
    <g id="Layer_5_21_" transform="translate(0 0)">
      <g id="Group_432" data-name="Group 432">
        <path id="Path_440" data-name="Path 440" class="cls-1" d="M70.627,43.652,63.9,32.094c1.164-.355,2.4-.668,2.918-1.558.858-1.482-.67-3.913-.268-5.5.413-1.635,2.853-3.049,2.853-4.711,0-1.619-2.523-3.51-2.936-5.136-.4-1.588,1.119-4.022.258-5.5S63,8.327,61.817,7.191C60.6,6.022,60.605,3.161,59.14,2.377s-3.863.8-5.5.427C52.029,2.432,50.586,0,48.9,0c-1.712,0-4.435,2.758-4.862,2.858-1.633.38-4.027-1.206-5.5-.416S37.085,6.089,35.872,7.26c-1.179,1.138-4.048,1.022-4.906,2.5s.67,3.912.269,5.5-2.927,3.208-2.927,5.05c0,1.662,2.446,3.072,2.862,4.706.4,1.588-1.119,4.022-.258,5.5a4.237,4.237,0,0,0,2.595,1.455c.124.037.358.176.2.407L27.129,43.737a.937.937,0,0,0,.84,1.53l4.538.189a3.612,3.612,0,0,1,2.585,1.5L37.512,50.8a.937.937,0,0,0,1.745-.033s6.775-11.7,6.778-11.7c.136-.159.273-.126.338-.071a4.69,4.69,0,0,0,2.637,1.261A4.057,4.057,0,0,0,51.413,39c.063-.054.216-.164.329.065L58.511,50.7a.937.937,0,0,0,1.745.03l2.415-3.847a3.612,3.612,0,0,1,2.582-1.5l4.537-.2A.937.937,0,0,0,70.627,43.652ZM56.4,33.131a15.038,15.038,0,1,1-.3-26.218l.112.062.158.089A15.066,15.066,0,0,1,56.4,33.131Z" transform="translate(-26.93)"/>
        <path id="Path_441" data-name="Path 441" class="cls-1" d="M112.386,55.241l-.063-.035a12.678,12.678,0,0,0-13.09,21.712c.144.091.29.181.439.268a12.68,12.68,0,1,0,12.713-21.944Zm1.514,9.891L111.781,67.2a3.559,3.559,0,0,0-.911,2.8l.5,2.916c.155.9-.382,1.293-1.193.867l-2.619-1.377a3.56,3.56,0,0,0-2.949,0l-2.618,1.377c-.811.426-1.348.036-1.193-.867L101.3,70a3.559,3.559,0,0,0-.911-2.8l-2.118-2.065c-.656-.639-.451-1.271.456-1.4l2.928-.425a3.56,3.56,0,0,0,2.386-1.734l1.309-2.653c.406-.822,1.069-.822,1.475,0l1.309,2.653a3.56,3.56,0,0,0,2.386,1.734l2.928.425C114.35,63.862,114.555,64.493,113.9,65.132Z" transform="translate(-84.065 -46.064)"/>
      </g>
    </g>
  </g>
</svg>
