<svg xmlns="http://www.w3.org/2000/svg" viewBox="16439.707 3204.619 15.355 15.364">
  <defs>
    <style>
      .cls-1 {
        fill: #fff;
      }
    </style>
  </defs>
  <path id="facebook" class="cls-1" d="M13.293,0H2.071A2.072,2.072,0,0,0,0,2.071V13.293a2.072,2.072,0,0,0,2.071,2.071H7.607l.011-5.491H6.19a.341.341,0,0,1-.338-.334l-.008-1.77a.337.337,0,0,1,.338-.338H7.607V5.72a2.794,2.794,0,0,1,2.98-3.067h1.451a.339.339,0,0,1,.338.338V4.484a.339.339,0,0,1-.338.338h-.891c-.962,0-1.15.459-1.15,1.127V7.43h2.116a.337.337,0,0,1,.334.376l-.21,1.77a.337.337,0,0,1-.334.3H10l-.011,5.491h3.292a2.072,2.072,0,0,0,2.071-2.071V2.071A2.061,2.061,0,0,0,13.293,0Z" transform="translate(16439.707 3204.619)"/>
</svg>
