<svg xmlns="http://www.w3.org/2000/svg" viewBox="9780.787 612.941 56.71 45.87">
  <defs>
    <style>
      .cls-1 {
        fill: #fff;
      }
    </style>
  </defs>
  <g id="Group_431" data-name="Group 431" transform="translate(9780.787 612.941)">
    <g id="_004-man-user" data-name="004-man-user" transform="translate(11.767 2.793)">
      <path id="Path_434" data-name="Path 434" class="cls-1" d="M113.208,21.067c4.789,0,8.672-4.716,8.672-10.534S120.605,0,113.208,0s-8.673,4.716-8.673,10.534S108.418,21.067,113.208,21.067Z" transform="translate(-96.825)"/>
      <path id="Path_435" data-name="Path 435" d="M41.9,300.554c0-.355,0-.1,0,0Z" transform="translate(-41.895 -263.403)"/>
      <path id="Path_436" data-name="Path 436" d="M308.085,301.808c0-.1,0-.674,0,0Z" transform="translate(-275.323 -264.38)"/>
      <path id="Path_437" data-name="Path 437" class="cls-1" d="M74.65,192.59c-.161-10.134-1.484-13.022-11.613-14.85a6.071,6.071,0,0,1-4.749,1.817,6.072,6.072,0,0,1-4.749-1.817c-10.018,1.808-11.422,4.653-11.607,14.521-.015.806-.022.848-.025.755,0,.175,0,.5,0,1.065,0,0,2.411,4.861,16.379,4.861s16.379-4.861,16.379-4.861c0-.363,0-.616,0-.788A6.531,6.531,0,0,1,74.65,192.59Z" transform="translate(-41.906 -155.864)"/>
    </g>
    <path id="Path_438" data-name="Path 438" class="cls-1" d="M13.557.36a1.053,1.053,0,0,0-1.586,0,1.317,1.317,0,0,0,0,1.741l2,2.2C6.608,4.7.645,11.051,0,19.051l.166-.315a2.638,2.638,0,0,1,2.308-1.462l.06,0C3.8,11.511,8.379,7.15,13.929,6.772L11.971,8.921a1.317,1.317,0,0,0,0,1.741,1.053,1.053,0,0,0,1.586,0l3.9-4.28a1.317,1.317,0,0,0,0-1.741L13.557.36Z" transform="matrix(0.695, -0.719, 0.719, 0.695, 0, 12.807)"/>
    <path id="Path_439" data-name="Path 439" class="cls-1" d="M4.229.36a1.053,1.053,0,0,1,1.586,0,1.317,1.317,0,0,1,0,1.741l-2,2.2c7.367.4,13.33,6.75,13.975,14.751l-.166-.315a2.638,2.638,0,0,0-2.308-1.462l-.06,0C13.989,11.512,9.407,7.151,3.857,6.772L5.815,8.921a1.317,1.317,0,0,1,0,1.741,1.053,1.053,0,0,1-1.586,0l-3.9-4.28a1.317,1.317,0,0,1,0-1.741L4.229.36Z" transform="translate(44.132 0) rotate(45)"/>
  </g>
</svg>
