<svg xmlns="http://www.w3.org/2000/svg" viewBox="16440.625 3272.731 16.057 16.057">
  <defs>
    <style>
      .cls-1 {
        fill: #fff;
      }
    </style>
  </defs>
  <g id="linkedin-logo" transform="translate(16440.624 3272.731)">
    <g id="post-linkedin">
      <path id="Path_181" data-name="Path 181" class="cls-1" d="M14.451,0H1.606A1.61,1.61,0,0,0,0,1.606V14.451a1.61,1.61,0,0,0,1.606,1.606H14.451a1.61,1.61,0,0,0,1.606-1.606V1.606A1.61,1.61,0,0,0,14.451,0ZM4.817,13.649H2.409V6.423H4.817Zm-1.2-8.591A1.445,1.445,0,1,1,5.058,3.613,1.439,1.439,0,0,1,3.613,5.058Zm10.036,8.591H11.24V9.393a1.2,1.2,0,1,0-2.409,0v4.255H6.423V6.423H8.831v.963a2.593,2.593,0,0,1,2.007-1.124,2.845,2.845,0,0,1,2.81,2.81Z"/>
    </g>
  </g>
</svg>
