<svg xmlns="http://www.w3.org/2000/svg" viewBox="10246.058 610.982 48.256 50.23">
  <defs>
    <style>
      .cls-1 {
        fill: #fff;
      }
    </style>
  </defs>
  <g id="_005-people" data-name="005-people" transform="translate(10246.057 610.982)">
    <path id="Path_442" data-name="Path 442" class="cls-1" d="M43.725,10.464a1.266,1.266,0,0,0,1.774-.238,19.525,19.525,0,0,1,31.066,0A1.266,1.266,0,0,0,78.576,8.69a22.055,22.055,0,0,0-35.09,0A1.266,1.266,0,0,0,43.725,10.464Z" transform="translate(-36.904 0)"/>
    <path id="Path_443" data-name="Path 443" class="cls-1" d="M228.037,82.369a3.952,3.952,0,1,0,3.952-3.952A3.957,3.957,0,0,0,228.037,82.369Z" transform="translate(-190.458 -65.155)"/>
    <path id="Path_444" data-name="Path 444" class="cls-1" d="M222.419,131.139l-1-.309a1.183,1.183,0,0,0-1.054.184l-1.986,1.487-1.986-1.487a1.182,1.182,0,0,0-1.054-.184l-1,.309a3.913,3.913,0,0,0-2.679,3.717v5.975a1.178,1.178,0,0,0,.194.648l2,3.049v8.008a1.181,1.181,0,0,0,1.181,1.181h6.689a1.181,1.181,0,0,0,1.181-1.181v-8.008l2-3.049a1.18,1.18,0,0,0,.194-.648v-5.975a3.913,3.913,0,0,0-2.679-3.717Z" transform="translate(-176.843 -108.661)"/>
    <path id="Path_445" data-name="Path 445" class="cls-1" d="M26.176,86.321a3.952,3.952,0,1,0-3.952-3.952A3.957,3.957,0,0,0,26.176,86.321Z" transform="translate(-19.453 -65.155)"/>
    <path id="Path_446" data-name="Path 446" class="cls-1" d="M16.607,131.139l-1-.309a1.183,1.183,0,0,0-1.054.184L12.563,132.5l-1.986-1.487a1.182,1.182,0,0,0-1.054-.184l-1,.309a3.913,3.913,0,0,0-2.679,3.717v5.975a1.178,1.178,0,0,0,.194.648l2,3.049v8.008a1.181,1.181,0,0,0,1.181,1.181h6.689a1.181,1.181,0,0,0,1.181-1.181v-8.008l2-3.049a1.18,1.18,0,0,0,.194-.648v-5.975A3.913,3.913,0,0,0,16.607,131.139Z" transform="translate(-5.839 -108.661)"/>
    <path id="Path_447" data-name="Path 447" class="cls-1" d="M128.554,43.807a5.1,5.1,0,1,0-5.1,5.1A5.1,5.1,0,0,0,128.554,43.807Z" transform="translate(-99.328 -32.162)"/>
    <path id="Path_448" data-name="Path 448" class="cls-1" d="M111.411,111.3l-.008,0-1.455-.446a.452.452,0,0,0-.557.277l-3.059,8.394a.552.552,0,0,1-1.038,0l-3.059-8.394a.452.452,0,0,0-.424-.3c-.044,0-1.586.466-1.586.466a4.516,4.516,0,0,0-3.1,4.291v8.88a.452.452,0,0,0,.074.248l3.192,4.858v12.292a.452.452,0,0,0,.452.452h9.942a.452.452,0,0,0,.452-.452V129.569l3.192-4.858a.452.452,0,0,0,.074-.248v-8.9A4.487,4.487,0,0,0,111.411,111.3Z" transform="translate(-81.684 -92.083)"/>
    <path id="Path_449" data-name="Path 449" class="cls-1" d="M142.978,111.539a.673.673,0,0,0-.5-.207h-1.394a.674.674,0,0,0-.5.207.647.647,0,0,0-.085.762l.745,1.124-.349,2.944.687,1.828a.21.21,0,0,0,.394,0l.687-1.828-.349-2.944.745-1.124A.647.647,0,0,0,142.978,111.539Z" transform="translate(-117.656 -92.503)"/>
  </g>
</svg>
