<svg xmlns="http://www.w3.org/2000/svg" viewBox="10479.318 609.697 46.858 55.622">
  <defs>
    <style>
      .cls-1 {
        fill: #fff;
      }
    </style>
  </defs>
  <g id="_002-satellite-dish" data-name="002-satellite-dish" transform="translate(10479.319 609.697)">
    <path id="Path_450" data-name="Path 450" class="cls-1" d="M31.594,55.622H6.606c0-3.615,2.452-6.767,6.076-8.427a22.453,22.453,0,0,0,11.05,2.892,23.772,23.772,0,0,0,4.236-.387A7.469,7.469,0,0,1,31.594,55.622ZM31.8,29.08c2.377,4.009,3.059,7.588,1.4,9.244-2.552,2.552-9.672-.426-15.9-6.651S8.1,18.33,10.654,15.773c1.562-1.564,4.848-1.048,8.589,1.023.875.483,3.361-.584,4.075-1.5-6.536-4.463-13.071-5.757-16.152-2.676-3.983,3.983-9.92,16.03,1.617,27.569,10.553,10.555,23.582,5.6,27.567,1.619,3.177-3.177,1.714-10.027-3.089-16.755C32.36,25.785,31.3,28.237,31.8,29.08ZM16.129,22.658a1.773,1.773,0,0,0,1.955,1.564l5.772-.642a4.289,4.289,0,0,0,1.472,1.472l-.642,5.772a1.773,1.773,0,0,0,1.564,1.955,1.54,1.54,0,0,0,.2.011A1.768,1.768,0,0,0,28.2,31.217l.642-5.778a4.266,4.266,0,1,0-5.376-5.376l-5.776.642A1.768,1.768,0,0,0,16.129,22.658Zm11.385-14.1a2.139,2.139,0,1,0,0,4.279c6.238,0,8.557,2.319,8.557,8.557a2.139,2.139,0,0,0,4.279,0C40.35,12.755,36.151,8.557,27.514,8.557Zm0-8.557a2.139,2.139,0,1,0,0,4.279A17.135,17.135,0,0,1,44.629,21.393a2.139,2.139,0,0,0,4.279,0A21.418,21.418,0,0,0,27.514,0Z" transform="translate(-2.048)"/>
  </g>
</svg>
