<svg xmlns="http://www.w3.org/2000/svg" viewBox="16440.043 3238.636 16.637 13.844">
  <defs>
    <style>
      .cls-1 {
        fill: #fff;
      }
    </style>
  </defs>
  <path id="twitter" class="cls-1" d="M16.256,36.014a6.7,6.7,0,0,1-1.148.385,3.613,3.613,0,0,0,.945-1.5h0a.188.188,0,0,0-.276-.219h0a6.693,6.693,0,0,1-1.752.726.5.5,0,0,1-.109.012.457.457,0,0,1-.308-.118,3.6,3.6,0,0,0-2.372-.9,3.919,3.919,0,0,0-1.135.174,3.465,3.465,0,0,0-2.34,2.5A3.845,3.845,0,0,0,7.675,38.4a.131.131,0,0,1-.032.1.13.13,0,0,1-.1.045H7.534A9.406,9.406,0,0,1,1.07,35.093h0a.188.188,0,0,0-.308.024h0a3.586,3.586,0,0,0,.584,4.359,3.358,3.358,0,0,1-.819-.316h0a.189.189,0,0,0-.28.162h0a3.6,3.6,0,0,0,2.092,3.309H2.262a3.351,3.351,0,0,1-.6-.057h0a.19.19,0,0,0-.215.243h0a3.59,3.59,0,0,0,2.839,2.445A6.614,6.614,0,0,1,.575,46.391H.161a.274.274,0,0,0-.268.207.28.28,0,0,0,.138.312,9.85,9.85,0,0,0,4.947,1.334,9.957,9.957,0,0,0,4.225-.9A9.372,9.372,0,0,0,12.3,45.032a10.161,10.161,0,0,0,1.894-3.171,9.992,9.992,0,0,0,.645-3.471v-.053a.62.62,0,0,1,.227-.474A7.088,7.088,0,0,0,16.491,36.3h0a.192.192,0,0,0-.235-.284Z" transform="translate(16440.159 3204.236)"/>
</svg>
